<svg xmlns="http://www.w3.org/2000/svg" fill="none" viewBox="0 0 16 16"><path fill="#000" fill-rule="evenodd" d="M6.31 5.3c.45-.3 1.05-.47 1.7-.47.63 0 1.23.17 1.68.48s.81.77.81 1.36c0 .58-.36 1.05-.8 1.35-.46.3-1.06.48-1.7.48s-1.24-.17-1.69-.48-.8-.77-.8-1.35c0-.6.35-1.06.8-1.36m.55.84c-.27.18-.36.38-.36.53q-.02.23.36.52.42.29 1.14.3.72-.01 1.14-.3c.27-.18.36-.38.36-.52s-.09-.35-.36-.53q-.42-.28-1.14-.3-.72.02-1.14.3" clip-rule="evenodd"/><path fill="#000" fill-rule="evenodd" d="m8 10.67.17.46h-.36l-.05-.02-.8-.34c-.5-.23-1.2-.56-1.89-.98a9 9 0 0 1-1.94-1.52 3.2 3.2 0 0 1-.96-2.12c0-1.02.75-1.87 1.83-2.43a9 9 0 0 1 4-.89c1.48 0 2.92.31 4 .89 1.08.56 1.83 1.41 1.83 2.43 0 .82-.42 1.53-.96 2.12a9 9 0 0 1-1.94 1.52 18 18 0 0 1-2.69 1.32l-.05.02h-.01zm0-6.84a8 8 0 0 0-3.54.77c-.93.5-1.3 1.08-1.3 1.55q.01.69.7 1.44c.46.5 1.09.95 1.73 1.34a17 17 0 0 0 2.37 1.18l.04.02.04-.02a17 17 0 0 0 2.37-1.18 8 8 0 0 0 1.72-1.34q.7-.75.7-1.44c0-.48-.36-1.06-1.3-1.55A8 8 0 0 0 8 3.83m-.17 7.3.17-.46z" clip-rule="evenodd"/><path fill="#000" d="M12.5 13.17v-1h-9v1z"/></svg>